<?xml version="1.0" encoding="UTF-8"?>
<svg version="1.1" xmlns="http://www.w3.org/2000/svg" width="512" height="512">
<path d="M0 0 C3.89974736 2.27049846 6.75747578 4.96697673 9.89453125 8.1796875 C10.8086377 9.1068457 10.8086377 9.1068457 11.74121094 10.05273438 C17.76310038 16.26664433 23.07471566 22.91190765 28.20703125 29.8671875 C28.63467773 30.43937012 29.06232422 31.01155273 29.50292969 31.60107422 C36.01633002 40.34066702 41.81967077 49.39524558 47.20703125 58.8671875 C47.57151367 59.49898926 47.93599609 60.13079102 48.31152344 60.78173828 C63.20988794 86.81114034 72.85350667 116.22829239 77.20703125 145.8671875 C77.38435791 147.07181641 77.56168457 148.27644531 77.74438477 149.51757812 C79.34335619 161.1748606 79.56544097 172.73904816 79.51953125 184.4921875 C79.51770844 185.46174377 79.51588562 186.43130005 79.51400757 187.43023682 C79.46865862 201.76198009 79.04998547 215.77614262 76.20703125 229.8671875 C76.03010742 230.76904785 75.85318359 231.6709082 75.67089844 232.60009766 C74.37205314 239.07301323 72.8652693 245.47739612 71.20703125 251.8671875 C70.99208008 252.69782715 70.77712891 253.5284668 70.55566406 254.38427734 C59.78061967 295.012154 38.06185279 331.5291742 9.20703125 361.8671875 C8.52382813 362.60324219 7.840625 363.33929688 7.13671875 364.09765625 C2.96197594 368.48023258 0.04758902 370.54561492 -6.10546875 371.2421875 C-11.29142948 370.71480166 -15.57491219 369.26542232 -19.1875 365.359375 C-22.18409056 360.80625154 -22.69558545 356.18787543 -21.79296875 350.8671875 C-19.43114766 345.11666659 -15.62651814 341.57898788 -11.20703125 337.2890625 C26.93871829 299.01986393 47.57376287 241.41839376 47.58807373 188.10784912 C47.58607971 187.26530579 47.58408569 186.42276245 47.58203125 185.5546875 C47.58148743 184.68378479 47.5809436 183.81288208 47.5803833 182.91558838 C47.40449045 121.29258358 21.89189244 68.31269972 -19.3671875 23.63671875 C-22.16648666 20.16252006 -22.13886527 16.48435636 -22.0625 12.21484375 C-21.6241302 8.39657922 -20.40379571 5.69009845 -17.79296875 2.8671875 C-12.27586585 -1.17789011 -6.5316339 -2.64919417 0 0 Z " fill="#FFFFFF" transform="translate(432.79296875,71.1328125)"/>
<path d="M0 0 C4.14225324 2.30035811 6.38797331 4.90572448 7.8125 9.4375 C8.7047196 14.68858413 8.2403457 19.07380026 5.265625 23.640625 C2.81955898 26.6653303 0.01474068 29.30918495 -2.7734375 32.015625 C-40.91918704 70.28482357 -61.55423162 127.88629374 -61.56854248 181.19683838 C-61.56654846 182.03938171 -61.56455444 182.88192505 -61.5625 183.75 C-61.56195618 184.62090271 -61.56141235 185.49180542 -61.56085205 186.38909912 C-61.42007958 235.70788845 -45.13717646 286.30096823 -13.1875 324.4375 C-12.70249023 325.01725586 -12.21748047 325.59701172 -11.71777344 326.19433594 C-6.15452204 332.81018982 -0.47836878 339.31715969 5.38671875 345.66796875 C8.18601791 349.14216744 8.15839652 352.82033114 8.08203125 357.08984375 C7.64366145 360.90810828 6.42332696 363.61458905 3.8125 366.4375 C-0.88844951 369.88418315 -5.34165319 371.19529496 -11.1875 370.4375 C-16.49171253 368.28614107 -19.94759095 365.14712503 -23.875 361.125 C-24.78910645 360.1978418 -24.78910645 360.1978418 -25.72167969 359.25195312 C-31.74356913 353.03804317 -37.05518441 346.39277985 -42.1875 339.4375 C-42.61514648 338.86531738 -43.04279297 338.29313477 -43.48339844 337.70361328 C-49.99679877 328.96402048 -55.80013952 319.90944192 -61.1875 310.4375 C-61.55198242 309.80569824 -61.91646484 309.17389648 -62.29199219 308.52294922 C-83.76062448 271.01442528 -93.65873099 228.15719362 -93.5625 185.1875 C-93.56162384 184.22595001 -93.56074768 183.26440002 -93.55984497 182.27371216 C-93.36441801 116.92334243 -68.59385021 56.15657971 -24.1875 8.4375 C-23.47207031 7.66792969 -22.75664063 6.89835937 -22.01953125 6.10546875 C-21.33246094 5.39003906 -20.64539063 4.67460938 -19.9375 3.9375 C-19.33421875 3.3084375 -18.7309375 2.679375 -18.109375 2.03125 C-12.68102696 -2.47030691 -6.3431248 -2.74711539 0 0 Z " fill="#FFFFFF" transform="translate(93.1875,71.5625)"/>
<path d="M0 0 C12.34392542 13.00482644 18.00426722 29.13809118 18.07470703 46.89306641 C17.56632081 61.23088704 12.73522299 73.72934152 4 85 C3.4534375 85.71285156 2.906875 86.42570312 2.34375 87.16015625 C-7.98441402 99.80241363 -23.62300737 107.05480387 -39.6628418 108.71142578 C-58.8618058 110.26252983 -75.32026397 103.85521603 -90.125 91.75 C-102.73964256 80.33914043 -109.08143389 64.12684696 -109.92529297 47.4597168 C-110.43411326 31.55118725 -105.92099198 17.47087977 -96 5 C-95.45472656 4.29101562 -94.90945312 3.58203125 -94.34765625 2.8515625 C-84.18246739 -9.63368123 -69.69522109 -15.62131096 -54.3125 -18.75 C-33.87582076 -20.71828673 -14.90282458 -13.9867589 0 0 Z M-72 25 C-77.36426806 31.32708541 -79.42109964 39.41532038 -78.9375 47.625 C-77.49911566 58.2690441 -72.04532992 66.14838604 -63.75 72.8125 C-56.76888581 77.40943903 -48.81124709 78.67212799 -40.62890625 77.56640625 C-30.78140924 75.44473156 -22.576321 69.41505697 -17.03515625 61 C-12.63476547 52.49811291 -11.9876809 43.71135612 -14.72265625 34.58984375 C-17.93466753 26.48333909 -24.16445162 19.00113109 -32 15 C-47.57154665 9.36241815 -60.79771914 12.7164179 -72 25 Z " fill="#FFFFFF" transform="translate(302,211)"/>
<path d="M0 0 C4.62215198 2.18944041 6.71179348 4.50115328 9 9 C9.84735716 13.76227861 10.05269769 18.70470621 8.00390625 23.171875 C6.46629718 25.2800982 4.81278534 27.12208465 3 29 C-27.83183584 61.66129905 -42.47579168 102.91000058 -41.375 147.6640625 C-39.67394421 188.45750656 -22.30918875 224.51739673 5.6640625 253.73828125 C9.47388751 258.19726639 9.68131724 262.42211678 9.421875 268.1875 C8.84682725 272.02115165 7.66107821 274.19507972 5 277 C-0.45077966 280.8640801 -5.510825 281.02238304 -12 280 C-18.28291579 277.10264187 -22.73980561 271.28095384 -27 266 C-27.40621582 265.50467773 -27.81243164 265.00935547 -28.23095703 264.49902344 C-48.97685615 239.14882422 -63.43202693 210.19070522 -70 178 C-70.16371094 177.21850586 -70.32742187 176.43701172 -70.49609375 175.63183594 C-79.97776262 128.32144272 -69.65833372 76.2362033 -43.37109375 35.91015625 C-38.02652828 27.9054974 -32.29822176 20.28442018 -26 13 C-25.21367188 12.07960937 -24.42734375 11.15921875 -23.6171875 10.2109375 C-16.26329767 1.78915608 -11.44518558 -1.39575434 0 0 Z " fill="#FFFFFF" transform="translate(137,116)"/>
<path d="M0 0 C6.28291579 2.89735813 10.73980561 8.71904616 15 14 C15.40621582 14.49532227 15.81243164 14.99064453 16.23095703 15.50097656 C36.97685615 40.85117578 51.43202693 69.80929478 58 102 C58.24556641 103.17224121 58.24556641 103.17224121 58.49609375 104.36816406 C67.97776262 151.67855728 57.65833372 203.7637967 31.37109375 244.08984375 C26.02652828 252.0945026 20.29822176 259.71557982 14 267 C13.21367187 267.92039062 12.42734375 268.84078125 11.6171875 269.7890625 C3.10621777 279.53594862 3.10621777 279.53594862 -2.90234375 280.43359375 C-9.05071801 280.44150672 -13.31314296 280.4465054 -18 276 C-21.86794884 270.54376299 -22.01168904 265.49521364 -21 259 C-19.5306197 255.79617473 -17.43546708 253.52296889 -15 251 C15.83183584 218.33870095 30.47579168 177.08999942 29.375 132.3359375 C27.67394421 91.54249344 10.30918875 55.48260327 -17.6640625 26.26171875 C-21.47388751 21.80273361 -21.68131724 17.57788322 -21.421875 11.8125 C-20.84682725 7.97884835 -19.66107821 5.80492028 -17 3 C-11.54922034 -0.8640801 -6.489175 -1.02238304 0 0 Z " fill="#FFFFFF" transform="translate(387,116)"/>
<path d="M0 0 C21.0215661 13.91772652 33.49652427 44.35614733 38.4609375 68.0625 C44.8931377 101.73675143 38.32240788 136.95520758 19.20458984 165.56347656 C16.48582495 169.40792363 13.5443437 173.03167629 10.5 176.625 C9.77554688 177.511875 9.05109375 178.39875 8.3046875 179.3125 C4.25010477 184.12249928 0.88511793 187.91190606 -5.58984375 188.96484375 C-10.89396263 189.33658542 -14.51225744 188.18027708 -18.8359375 185.10546875 C-22.5815023 181.77314702 -23.38784202 178.61839928 -23.9375 173.75 C-23.64968408 167.45402685 -20.8635695 162.72296914 -16.3125 158.5 C-10.90367243 153.40455943 -7.25405517 146.97228193 -3.5 140.625 C-2.92894531 139.6659375 -2.35789062 138.706875 -1.76953125 137.71875 C10.35192757 115.53242948 11.29968106 88.56122668 4.5 64.625 C0.35248176 51.62438601 -5.94609529 40.42626754 -15.25 30.375 C-19.90822652 25.33864455 -23.51625546 20.64424236 -24.0625 13.625 C-23.78760854 8.81913895 -21.61055195 5.20460343 -18.5 1.625 C-12.73048561 -2.57101046 -6.45765128 -2.53693443 0 0 Z " fill="#FFFFFF" transform="translate(343.5,162.375)"/>
<path d="M0 0 C4.49910547 2.56382849 7.15751767 5.00990006 8.75 10.0859375 C9.46665556 16.43345817 8.39097364 20.81354838 4.75 26.0859375 C3.73900614 27.13715658 2.69475649 28.15707924 1.625 29.1484375 C-14.9963194 44.94939135 -22.79623751 69.46898492 -23.72070312 91.87744141 C-24.04044885 115.98093978 -15.92237203 139.59439132 0.5 157.3359375 C5.15822652 162.37229295 8.76625546 167.06669514 9.3125 174.0859375 C9.03760854 178.89179855 6.86055195 182.50633407 3.75 186.0859375 C-0.92994865 189.48953652 -5.6441861 189.92336137 -11.25 189.0859375 C-27.59555968 182.66446762 -38.26819102 160.37109001 -45.0546875 145.2578125 C-58.83843235 113.38801736 -58.75578911 77.96798583 -46.31835938 45.68359375 C-41.0651492 32.91070612 -34.16283083 21.60600012 -25.25 11.0859375 C-24.52554688 10.1990625 -23.80109375 9.3121875 -23.0546875 8.3984375 C-16.86686355 1.05774901 -9.77167971 -3.96974488 0 0 Z " fill="#FFFFFF" transform="translate(183.25,161.9140625)"/>
</svg>
