<?xml version="1.0" encoding="utf-8"?>
<!-- Generator: Adobe Illustrator 23.0.2, SVG Export Plug-In . SVG Version: 6.00 Build 0)  -->
<svg version="1.1" id="Layer_1" xmlns="http://www.w3.org/2000/svg" xmlns:xlink="http://www.w3.org/1999/xlink" x="0px" y="0px"
	 viewBox="0 0 644.5 373.6" style="enable-background:new 0 0 644.5 373.6;" xml:space="preserve">
<style type="text/css">
	.st0{fill:#005EAB;}
	.st1{fill-rule:evenodd;clip-rule:evenodd;fill:#FFFFFF;}
	.st2{fill:#FFFFFF;}
</style>
<g>
	<rect class="st0" width="373.6" height="373.6"/>
	<path class="st1" d="M25.3,291.7v-49.2h42.9c8.8,0,23.1,1.2,23.1,12.8c0,5.8-5,9.8-10.8,11.3c7.2,2.3,10.8,6.3,10.8,11.8
		c0,12-13.6,13.2-23.1,13.3L25.3,291.7L25.3,291.7z M41,271l4.6-7.6c0.9-1.7,3.1-2.8,5.1-2.8h8.7h8.8c3.1,0,5.7-1.5,5.7-3.9
		c0-2.5-2.6-3.9-5.7-3.9H41V271z M41,271v20.7l4.6-7.6c0.9-1.6,3.1-2.7,5.1-2.7H68c3.2,0,5.9-2.3,5.9-5.2c0-2.9-2.6-5.2-5.9-5.2
		L41,271L41,271z M129.2,254.3L108,291.7H89.5l29.6-49.2h10.1h10.1l29.6,49.2h-18.5l-5-8.8H118l4.6-7.6c0.9-1.7,3.1-2.8,5.1-2.8
		h11.9L129.2,254.3z M197.5,281.3c3.6,0,6.5-1.8,6.5-5.3v-33.5h15.8v35c0,10.7-6.9,14.2-16,14.2h-26.2c-2,0-4.1-1.2-5.1-2.8
		l-4.5-7.6L197.5,281.3L197.5,281.3z M315.9,281.3H349l-4.6,7.6c-1,1.6-3.2,2.8-5.2,2.8h-29.5c-9.1,0-16-3.6-16-14.2v-35h15.8V276
		C309.5,279.6,312.4,281.3,315.9,281.3"/>
	<path class="st1" d="M286.1,281.3h-32c-2,0-4.2,1.2-5.1,2.7l-4.6,7.6H286L286.1,281.3z"/>
	<path class="st1" d="M285.9,260.6h-23.1h-8.7c-2,0-4.2,1.1-5.1,2.8l-4.6,7.6H286L285.9,260.6z"/>
	<polygon class="st1" points="286.1,242.5 228.3,242.5 228.3,291.7 244,291.7 244,271 244,252.8 286.1,252.8 	"/>
	<path class="st2" d="M224,97.8c0,9-7.3,16.3-16.3,16.3s-16.3-7.3-16.3-16.3s7.3-16.3,16.3-16.3S224,88.8,224,97.8"/>
	<polygon class="st2" points="208.5,161.4 168.9,126.5 130.4,159.8 117.6,144.9 169.1,100.6 208.7,135.5 243.4,106.1 256.1,121 	"/>
	<g>
		<path class="st2" d="M429.7,189.6c-2.8,2.1-6.7,3.2-11.9,3.2H408v15.5h-9.8v-43.1h20.3c4.7,0,8.4,1.1,11.2,3.3s4.2,5.7,4.2,10.3
			C433.9,183.9,432.5,187.5,429.7,189.6z M422.2,174.1c-1.3-1-3-1.4-5.3-1.4H408v12.7h8.9c2.3,0,4-0.5,5.3-1.5s1.9-2.7,1.9-4.9
			S423.4,175,422.2,174.1z"/>
	</g>
	<g>
		<path class="st2" d="M458.2,175.6c0.1,0,0.4,0,0.8,0v8.5c-0.6-0.1-1.1-0.1-1.5-0.1c-0.5,0-0.8,0-1.1,0c-3.7,0-6.2,1.1-7.4,3.3
			c-0.7,1.2-1.1,3.1-1.1,5.7v15.2h-9.2v-31.8h8.7v5.5c1.4-2.1,2.6-3.6,3.7-4.4c1.7-1.3,3.9-2,6.7-2
			C458,175.6,458.1,175.6,458.2,175.6z"/>
		<path class="st2" d="M492.6,204.3c-3,3.3-7.4,5-13.5,5c-6,0-10.5-1.7-13.5-5s-4.4-7.3-4.4-12c0-4.6,1.5-8.6,4.4-11.9s7.4-5,13.5-5
			c6,0,10.5,1.7,13.5,5s4.4,7.3,4.4,11.9C497,197,495.6,201,492.6,204.3z M485.3,199.7c1.4-1.7,2.2-4.2,2.2-7.4s-0.7-5.6-2.2-7.4
			c-1.4-1.7-3.5-2.6-6.2-2.6s-4.7,0.9-6.2,2.6c-1.4,1.7-2.2,4.2-2.2,7.4s0.7,5.6,2.2,7.4c1.4,1.7,3.5,2.6,6.2,2.6
			S483.8,201.4,485.3,199.7z"/>
		<path class="st2" d="M498.7,214.3c0.5,0,0.9,0.1,1.1,0.1s0.4,0,0.6,0c0.9,0,1.6-0.2,2-0.6c0.5-0.4,0.7-1.2,0.7-2.3v-35h9.2v35.1
			c0,3.2-0.7,5.6-2.1,7.1s-4.1,2.3-8.2,2.3c-0.3,0-0.7,0-1.2,0s-1.2,0-2-0.1v-6.6H498.7z M512.2,172.6H503v-7.7h9.2V172.6z"/>
	</g>
	<g>
		<path class="st2" d="M542.7,177c2.4,1,4.5,2.6,6.1,4.7c1.4,1.9,2.4,4.1,2.8,6.6c0.2,1.5,0.3,3.6,0.3,6.3h-25.5
			c0.1,3.2,1.4,5.4,3.7,6.7c1.4,0.8,3.1,1.2,5,1.2c2.1,0,3.8-0.5,5.1-1.5c0.7-0.5,1.3-1.3,1.9-2.2h9.3c-0.2,1.9-1.4,3.8-3.4,5.8
			c-3.1,3.1-7.5,4.6-13.2,4.6c-4.7,0-8.8-1.3-12.3-3.9c-3.6-2.6-5.3-6.9-5.3-12.7c0-5.5,1.6-9.7,4.8-12.7c3.2-2.9,7.4-4.4,12.5-4.4
			C537.5,175.5,540.3,176,542.7,177z M529,184.2c-1.3,1.2-2.1,2.9-2.4,4.9h15.8c-0.2-2.2-1-3.9-2.4-5c-1.5-1.1-3.3-1.7-5.4-1.7
			C532.1,182.4,530.3,183,529,184.2z"/>
	</g>
	<g>
		<path class="st2" d="M579.1,187.8c-0.2-1.2-0.6-2.3-1.3-3.2c-1-1.3-2.6-1.9-4.8-1.9c-3.1,0-5.2,1.4-6.3,4.2
			c-0.6,1.5-0.9,3.4-0.9,5.9c0,2.3,0.3,4.2,0.9,5.6c1.1,2.6,3.2,4,6.2,4c2.1,0,3.7-0.5,4.6-1.6s1.4-2.4,1.6-4.1h9.3
			c-0.2,2.5-1.2,4.9-3,7.2c-2.9,3.6-7.1,5.5-12.8,5.5s-9.8-1.5-12.4-4.6c-2.7-3-4-7-4-11.8c0-5.5,1.5-9.7,4.4-12.7s7-4.6,12.2-4.6
			c4.4,0,8,0.9,10.8,2.7s4.5,5,5,9.5L579.1,187.8L579.1,187.8z"/>
		<path class="st2" d="M590.1,182.6v-5.9h4.9v-8.9h9.1v8.9h5.7v5.9h-5.7v16.8c0,1.3,0.2,2.1,0.5,2.4s1.5,0.5,3.3,0.5
			c0.3,0,0.6,0,0.9,0c0.3,0,0.6,0,0.9,0v6.2l-4.3,0.1c-4.3,0.1-7.3-0.5-8.9-2c-1-1-1.5-2.4-1.5-4.4v-19.6H590.1z"/>
		<path class="st2" d="M621.8,198c0.2,1.5,0.6,2.5,1.3,3.2c1.1,1.1,3.3,1.7,6.3,1.7c1.8,0,3.2-0.2,4.3-0.7s1.6-1.2,1.6-2.2
			c0-0.9-0.4-1.6-1.3-2.1c-0.9-0.5-4.1-1.3-9.6-2.5c-4-0.9-6.8-2-8.4-3.4c-1.6-1.3-2.4-3.2-2.4-5.7c0-2.9,1.3-5.5,3.8-7.6
			s6.1-3.2,10.7-3.2c4.4,0,7.9,0.8,10.7,2.4c2.8,1.6,4.3,4.3,4.7,8.2h-9.2c-0.1-1.1-0.5-1.9-1-2.5c-1-1.1-2.7-1.7-5.2-1.7
			c-2,0-3.4,0.3-4.3,0.8c-0.8,0.6-1.3,1.2-1.3,2c0,1,0.5,1.6,1.4,2.1c0.9,0.4,4.1,1.2,9.6,2.3c3.6,0.8,6.4,2,8.2,3.5
			c1.8,1.6,2.7,3.6,2.7,6c0,3.2-1.3,5.7-3.9,7.7c-2.6,2-6.6,3-12,3c-5.5,0-9.6-1.1-12.2-3.2c-2.6-2.1-3.9-4.8-3.9-8.1H621.8z"/>
	</g>
</g>
</svg>
